<?xml version="1.0" encoding="utf-8"?>
<!-- Generator: Adobe Illustrator 18.1.1, SVG Export Plug-In . SVG Version: 6.00 Build 0)  -->
<svg version="1.1" id="レイヤー_1" xmlns:sketch="http://www.bohemiancoding.com/sketch/ns"
	 xmlns="http://www.w3.org/2000/svg" xmlns:xlink="http://www.w3.org/1999/xlink" x="0px" y="0px" viewBox="0 0 50 50"
	 enable-background="new 0 0 50 50" xml:space="preserve">
<g>
	<g>
		<path fill="#FF6F90" d="M25,1c13.2,0,24,10.8,24,24S38.2,49,25,49S1,38.2,1,25S11.8,1,25,1 M25,0C11.2,0,0,11.2,0,25
			s11.2,25,25,25s25-11.2,25-25S38.8,0,25,0L25,0z"/>
	</g>
	<path id="Check" fill="#FF6F90" d="M35.6,18.7c-0.2-0.2-0.5-0.2-0.8,0L23.2,30.2l-7.5-7.5c-0.2-0.2-0.6-0.2-0.8,0.1
		c-0.2,0.2-0.2,0.5,0,0.8l7.9,7.8c0.1,0.1,0.2,0.2,0.3,0.2c0.2,0,0.2-0.1,0.3-0.2l12.1-12C35.7,19.2,35.7,18.9,35.6,18.7"/>
</g>
</svg>
