<?xml version="1.0" encoding="utf-8"?>
<!-- Generator: Adobe Illustrator 19.0.0, SVG Export Plug-In . SVG Version: 6.00 Build 0)  -->
<svg version="1.1" id="レイヤー_1" xmlns:sketch="http://www.bohemiancoding.com/sketch/ns"
	 xmlns="http://www.w3.org/2000/svg" xmlns:xlink="http://www.w3.org/1999/xlink" x="0px" y="0px" viewBox="-463 267 25 28"
	 style="enable-background:new -463 267 25 28;" xml:space="preserve">
<style type="text/css">
	.st0{fill:#FFFFFF;}
</style>
<g id="controller_prev" sketch:type="MSShapeGroup">
	<path class="st0" d="M-439.8,268L-439.8,268c0.2,0,0.3,0,0.4,0.1c0.3,0.2,0.5,0.6,0.5,1.2v23.3c0,0.6-0.2,1-0.5,1.2
		c-0.1,0.1-0.3,0.1-0.4,0.1c-0.3,0-0.6-0.1-0.9-0.3l-20.2-11.6c-0.5-0.3-0.8-0.7-0.8-1.1c0-0.4,0.3-0.8,0.8-1.1l20.1-11.6
		C-440.4,268.1-440.1,268-439.8,268 M-439.8,267c-0.4,0-0.9,0.1-1.4,0.4l-20.1,11.6c-0.8,0.5-1.3,1.2-1.3,1.9c0,0.8,0.5,1.5,1.3,1.9
		l20.2,11.6c0.5,0.3,0.9,0.4,1.4,0.4c0.3,0,0.7-0.1,0.9-0.2c0.7-0.4,1-1.1,1-2.1v-23.3c0-1-0.4-1.7-1-2.1
		C-439.2,267.1-439.5,267-439.8,267L-439.8,267z"/>
</g>
</svg>
