<?xml version="1.0" encoding="utf-8"?>
<!-- Generator: Adobe Illustrator 18.1.1, SVG Export Plug-In . SVG Version: 6.00 Build 0)  -->
<svg version="1.1" id="レイヤー_1" xmlns:sketch="http://www.bohemiancoding.com/sketch/ns"
	 xmlns="http://www.w3.org/2000/svg" xmlns:xlink="http://www.w3.org/1999/xlink" x="0px" y="0px" viewBox="-16 15 62 62"
	 enable-background="new -16 15 62 62" xml:space="preserve">
<g>
	<g id="Oval-2-Copy">
		<path fill="#FFFFFF" d="M15,16c16.5,0,30,13.5,30,30S31.5,76,15,76s-30-13.5-30-30S-1.5,16,15,16 M15,15c-17.1,0-31,13.9-31,31
			s13.9,31,31,31s31-13.9,31-31S32.1,15,15,15L15,15z"/>
	</g>
	<path id="Check" fill="#FFFFFF" d="M28.3,38.2c-0.2-0.2-0.6-0.2-0.9,0L13,52.5l-9.3-9.3C3.4,43,3,43,2.8,43.3
		c-0.2,0.2-0.2,0.6,0,0.9l9.8,9.7c0.1,0.1,0.3,0.2,0.4,0.2c0.2,0,0.3-0.1,0.4-0.2L28.3,39C28.5,38.8,28.5,38.4,28.3,38.2"/>
</g>
</svg>
