<?xml version="1.0" encoding="utf-8"?>
<!-- Generator: Adobe Illustrator 19.0.0, SVG Export Plug-In . SVG Version: 6.00 Build 0)  -->
<svg version="1.1" id="レイヤー_1" xmlns:sketch="http://www.bohemiancoding.com/sketch/ns"
	 xmlns="http://www.w3.org/2000/svg" xmlns:xlink="http://www.w3.org/1999/xlink" x="0px" y="0px" viewBox="-463 267 25 28"
	 style="enable-background:new -463 267 25 28;" xml:space="preserve">
<style type="text/css">
	.st0{fill:#FFFFFF;}
</style>
<g id="controller_next" sketch:type="MSShapeGroup">
	<path class="st0" d="M-460.7,268c0.3,0,0.6,0.1,0.9,0.3l20.1,11.6c0.5,0.3,0.8,0.7,0.8,1.1c0,0.4-0.3,0.8-0.8,1.1l-20.2,11.6
		c-0.3,0.2-0.6,0.3-0.9,0.3c-0.2,0-0.3,0-0.5-0.1c-0.3-0.2-0.5-0.6-0.5-1.2v-23.3c0-0.6,0.2-1.1,0.5-1.2
		C-461,268-460.9,268-460.7,268 M-460.7,267c-0.3,0-0.7,0.1-0.9,0.2c-0.7,0.4-1,1.1-1,2.1v23.3c0,1,0.4,1.7,1,2.1
		c0.3,0.2,0.6,0.2,0.9,0.2c0.4,0,0.9-0.1,1.4-0.4l20.2-11.6c0.8-0.5,1.3-1.2,1.3-1.9c0-0.8-0.5-1.5-1.3-1.9l-20.1-11.6
		C-459.8,267.1-460.3,267-460.7,267L-460.7,267z"/>
</g>
</svg>
