<?xml version="1.0" encoding="UTF-8" standalone="no"?>
<svg width="28px" height="27px" viewBox="0 0 28 27" version="1.1" xmlns="http://www.w3.org/2000/svg" xmlns:xlink="http://www.w3.org/1999/xlink" xmlns:sketch="http://www.bohemiancoding.com/sketch/ns">
    <!-- Generator: Sketch 3.4 (15575) - http://www.bohemiancoding.com/sketch -->
    <title>dashboard_reblog</title>
    <desc>Created with Sketch.</desc>
    <defs></defs>
    <g id="Dashboard" stroke="none" stroke-width="1" fill="none" fill-rule="evenodd" sketch:type="MSPage">
        <g id="01-01" sketch:type="MSArtboardGroup" transform="translate(-79.000000, -784.000000)" stroke="#FFFFFF">
            <g id="contents" sketch:type="MSLayerGroup" transform="translate(0.000000, 44.000000)">
                <g id="button" transform="translate(0.000000, 728.000000)" sketch:type="MSShapeGroup">
                    <path d="M80.0653036,32.557901 L85.734986,37.9362965 C85.8810695,38.0753398 86.1471292,37.9717906 86.1471292,37.7702658 L86.1471292,34.1266852 L103.86342,34.1266852 C104.228042,34.1266852 104.627572,33.8849728 104.627572,33.5203507 L104.627572,30.4769445 L104.627572,24.9331051 C104.627572,24.7629677 104.376179,24.6711522 104.246816,24.7820348 L100.619956,27.9131498 C100.540461,27.9812047 100.520807,28.0806471 100.520807,28.1850763 L100.520807,30.0096533 C100.520807,30.2070714 100.2568,30.3132606 100.059382,30.3132606 L86.1471292,30.3132606 L86.1471292,27.0134749 C86.1471292,26.8119501 85.8810695,26.7084009 85.734986,26.8474443 L80.0776239,32.2258397 C79.9825816,32.3161885 79.9705547,32.4675522 80.0653036,32.557901 M105.618446,18.442099 L100.000685,13.0637035 C99.8548948,12.9246602 99.6407563,13.0282094 99.6407563,13.2297342 L99.6407563,16.8196335 L81.8203296,16.8196335 C81.4557076,16.8196335 81.1603138,17.1150272 81.1603138,17.4796493 L81.1603138,20.5230555 L81.1603138,26.0668949 C81.1603138,26.2370323 81.3597853,26.3288478 81.488855,26.2179652 L85.1418225,23.0868502 C85.2213177,23.0187953 85.2670788,22.9193529 85.2670788,22.8149237 L85.2670788,20.9903467 C85.2670788,20.7929286 85.4269493,20.6330581 85.6243674,20.6330581 L99.6407563,20.6330581 L99.6407563,23.9865251 C99.6407563,24.1880499 99.8548948,24.2915991 100.000685,24.1525557 L105.632233,18.7741603 C105.726982,18.6838115 105.713195,18.5324478 105.618446,18.442099" id="dashboard_reblog"></path>
                </g>
            </g>
        </g>
    </g>
</svg>