<?xml version="1.0" encoding="UTF-8" standalone="no"?>
<svg width="14px" height="14px" viewBox="0 0 14 14" version="1.1" xmlns="http://www.w3.org/2000/svg" xmlns:xlink="http://www.w3.org/1999/xlink" xmlns:sketch="http://www.bohemiancoding.com/sketch/ns">
    <!-- Generator: Sketch 3.4 (15575) - http://www.bohemiancoding.com/sketch -->
    <title>dashboard_link</title>
    <desc>Created with Sketch.</desc>
    <defs></defs>
    <g id="Dashboard" stroke="none" stroke-width="1" fill="none" fill-rule="evenodd" sketch:type="MSPage">
        <g id="01-01" sketch:type="MSArtboardGroup" transform="translate(-346.000000, -591.000000)" fill="#FFFFFF">
            <g id="contents" sketch:type="MSLayerGroup" transform="translate(0.000000, 44.000000)">
                <g id="info" transform="translate(0.000000, 547.000000)" sketch:type="MSShapeGroup">
                    <path d="M357.367,0 C356.663667,0 356.002667,0.274 355.505,0.771333333 L352.253,4.02366667 C351.845,4.431 351.591334,4.95 351.512,5.511 C350.950667,5.59033333 350.431334,5.845 350.023334,6.253 L346.771,9.50533333 C346.274,10.0023333 346,10.6636667 346,11.367 C345.999667,12.0703333 346.273667,12.7316667 346.771,13.229 C347.268334,13.7263333 347.929667,14 348.633,14 C349.336,14 349.997334,13.7263333 350.494667,13.229 L353.747,9.97666667 C354.154667,9.569 354.409,9.05033333 354.488,8.489 C355.049334,8.40966667 355.568334,8.15533333 355.976667,7.74733333 L359.228667,4.495 C359.726,3.99733333 360,3.336 360,2.633 C360,1.181 358.819,0 357.367,0 L357.367,0 Z M358.757334,4.02366667 L355.505,7.276 C355.133667,7.64733333 354.639667,7.85166667 354.114667,7.85166667 C353.581667,7.85166667 353.082667,7.64166667 352.709334,7.261 C352.580667,7.129 352.369667,7.12666667 352.238,7.25566667 C352.106667,7.38466667 352.104334,7.59533333 352.233334,7.727 C352.659667,8.163 353.21,8.42966667 353.806,8.49866667 C353.732,8.87733333 353.554334,9.22666667 353.275667,9.50533333 L350.023334,12.7576667 C349.651667,13.129 349.158,13.3333333 348.633,13.3333333 C348.107667,13.3333333 347.614,13.129 347.242334,12.7576667 C346.871,12.3863333 346.666667,11.8923333 346.666667,11.367 C346.666667,10.8416667 346.871,10.3476667 347.242334,9.97666667 L350.494667,6.72433333 C350.866,6.353 351.36,6.14866667 351.885,6.14866667 C352.41,6.14866667 352.904,6.353 353.275667,6.72433333 C353.405667,6.85466667 353.617,6.85466667 353.747,6.72433333 C353.877,6.59433333 353.877,6.38333333 353.747,6.253 C353.323,5.829 352.779667,5.56933333 352.193,5.50166667 C352.267667,5.123 352.445334,4.77333333 352.724334,4.495 L355.976667,1.24266667 C356.348,0.871333333 356.841667,0.666666667 357.367,0.666666667 C358.451,0.666666667 359.333334,1.549 359.333334,2.633 C359.333334,3.158 359.128667,3.65166667 358.757334,4.02366667 L358.757334,4.02366667 Z" id="dashboard_link"></path>
                </g>
            </g>
        </g>
    </g>
</svg>