<?xml version="1.0" encoding="utf-8"?>
<!-- Generator: Adobe Illustrator 19.0.0, SVG Export Plug-In . SVG Version: 6.00 Build 0)  -->
<svg version="1.1" id="レイヤー_1" xmlns:sketch="http://www.bohemiancoding.com/sketch/ns"
	 xmlns="http://www.w3.org/2000/svg" xmlns:xlink="http://www.w3.org/1999/xlink" x="0px" y="0px" viewBox="-465 267 23 22"
	 style="enable-background:new -465 267 23 22;" xml:space="preserve">
<style type="text/css">
	.st0{fill:none;stroke:#FFFFFF;}
</style>
<path id="dashboard_reblog" class="st0" d="M-463.7,283.6l4.5,4.3c0.1,0.1,0.3,0,0.3-0.1v-2.9h14.2c0.3,0,0.6-0.2,0.6-0.5V282v-4.4
	c0-0.1-0.2-0.2-0.3-0.1l-2.9,2.5c-0.1,0.1-0.1,0.1-0.1,0.2v1.5c0,0.2-0.2,0.2-0.4,0.2h-11.1v-2.6c0-0.2-0.2-0.2-0.3-0.1l-4.5,4.3
	C-463.8,283.5-463.8,283.6-463.7,283.6 M-443.3,272.4l-4.5-4.3c-0.1-0.1-0.3,0-0.3,0.1v2.9h-14.3c-0.3,0-0.5,0.2-0.5,0.5v2.4v4.4
	c0,0.1,0.2,0.2,0.3,0.1l2.9-2.5c0.1-0.1,0.1-0.1,0.1-0.2v-1.5c0-0.2,0.1-0.3,0.3-0.3h11.2v2.7c0,0.2,0.2,0.2,0.3,0.1l4.5-4.3
	C-443.2,272.5-443.2,272.4-443.3,272.4"/>
</svg>
