<?xml version="1.0" encoding="utf-8"?>
<!-- Generator: Adobe Illustrator 19.0.0, SVG Export Plug-In . SVG Version: 6.00 Build 0)  -->
<svg version="1.1" id="レイヤー_1" xmlns="http://www.w3.org/2000/svg" xmlns:xlink="http://www.w3.org/1999/xlink" x="0px"
	 y="0px" viewBox="0 0 30 28" style="enable-background:new 0 0 30 28;" xml:space="preserve">
<style type="text/css">
	.st0{fill:#FFFFFF;}
</style>
<path class="st0" d="M22.5,27.5L22.5,27.5l-4.2-0.1c-1.6,0-2.9-1.2-3.2-2.7L15,24.2l-0.1,0.5c-0.3,1.5-1.6,2.7-3.2,2.7l-4.1,0.1l0,0
	c-0.9,0-1.7-0.6-2-1.5l-1.2-4c-0.5-1.5,0.2-3.1,1.6-3.9l0.5-0.3l-0.6,0.1c-1.5,0.2-3-0.7-3.5-2.2L1.1,12c-0.3-0.9,0-1.8,0.8-2.4
	l3.4-2.4c1.3-0.9,3-0.8,4.1,0.3L9.9,8L9.6,7.4c-0.7-1.4-0.3-3.1,1-4.1l3.2-2.4c0.7-0.5,1.7-0.5,2.5,0l3.2,2.4c1.2,0.9,1.7,2.6,1,4.1
	L20.2,8l0.5-0.4c1.1-1.1,2.9-1.2,4.1-0.3l3.4,2.4c0.7,0.5,1.1,1.5,0.8,2.4l-1.3,3.8c-0.5,1.5-2,2.4-3.5,2.2L23.6,18l0.6,0.3
	c1.4,0.7,2,2.4,1.6,3.9l-1.2,4C24.2,27,23.4,27.5,22.5,27.5 M15.1,22.5c0.3,0,0.5,0.2,0.5,0.5l0.2,1c0.2,1.1,1.2,2,2.3,2l3.8,0.1
	c0.6,0,1.1-0.4,1.2-0.9l1.1-3.7c0.3-1.1-0.2-2.3-1.2-2.8l-1-0.5c-0.2-0.1-0.4-0.4-0.3-0.7c0.1-0.3,0.3-0.4,0.6-0.4l1.1,0.2
	c1.1,0.2,2.2-0.5,2.6-1.6l1.2-3.5c0.2-0.5,0-1.1-0.5-1.4l-3.2-2.2c-0.9-0.7-2.2-0.6-3,0.2l-0.8,0.7c-0.2,0.2-0.5,0.2-0.7,0
	s-0.3-0.4-0.2-0.7l0.5-1c0.5-1,0.2-2.3-0.7-3l-2.9-2.2c-0.4-0.3-1.1-0.3-1.5,0l-3,2.2c-0.9,0.7-1.2,1.9-0.7,3l0.5,1
	c0.1,0.2,0,0.5-0.2,0.7s-0.5,0.1-0.7,0L9.3,8.7c-0.8-0.8-2.1-0.9-3-0.2l-3.1,2.2c-0.5,0.3-0.6,0.9-0.5,1.4l1.2,3.5
	c0.4,1.1,1.5,1.7,2.6,1.6l1.1-0.1c0.3,0,0.5,0.1,0.6,0.4s0,0.5-0.3,0.7L7,18.7c-1,0.5-1.5,1.7-1.2,2.8l1.1,3.7
	c0.2,0.5,0.7,0.9,1.2,0.9l3.7-0.1c1.1,0,2.1-0.8,2.3-2l0.2-1C14.6,22.6,14.8,22.5,15.1,22.5"/>
</svg>
